<svg width="18" height="18" viewBox="0 0 18 18" fill="none" xmlns="http://www.w3.org/2000/svg">
<path d="M12.7499 1.49987C13.7436 1.50283 14.6958 1.8989 15.3984 2.60157C16.1011 3.30424 16.4972 4.25641 16.5001 5.25013V12.7499C16.4972 13.7436 16.1011 14.6958 15.3984 15.3984C14.6958 16.1011 13.7436 16.4972 12.7499 16.5001H5.25013C4.25641 16.4972 3.30424 16.1011 2.60157 15.3984C1.8989 14.6958 1.50283 13.7436 1.49987 12.7499V5.25013C1.50283 4.25641 1.8989 3.30424 2.60157 2.60157C3.30424 1.8989 4.25641 1.50283 5.25013 1.49987H12.7499V1.49987ZM12.7499 0H5.25013C2.3625 0 0 2.3625 0 5.25013V12.7499C0 15.6375 2.3625 18 5.25013 18H12.7499C15.6375 18 18 15.6375 18 12.7499V5.25013C18 2.3625 15.6375 0 12.7499 0V0Z" fill="white"/>
<path d="M13.8749 5.25009C13.6524 5.25009 13.4349 5.18411 13.2498 5.06049C13.0648 4.93687 12.9206 4.76116 12.8355 4.55558C12.7503 4.35001 12.7281 4.1238 12.7715 3.90556C12.8149 3.68732 12.922 3.48686 13.0794 3.32952C13.2367 3.17218 13.4372 3.06503 13.6554 3.02162C13.8736 2.97821 14.0998 3.00049 14.3054 3.08564C14.5109 3.17079 14.6866 3.31499 14.8103 3.5C14.9339 3.68502 14.9999 3.90253 14.9999 4.12505C15.0002 4.27288 14.9713 4.41932 14.9149 4.55596C14.8584 4.6926 14.7756 4.81675 14.6711 4.92128C14.5665 5.02582 14.4424 5.10867 14.3058 5.1651C14.1691 5.22153 14.0227 5.25041 13.8749 5.25009V5.25009ZM9 5.99985C9.59337 5.99985 10.1734 6.17582 10.6668 6.50549C11.1602 6.83516 11.5447 7.30374 11.7718 7.85196C11.9988 8.40019 12.0582 9.00344 11.9425 9.58543C11.8267 10.1674 11.541 10.702 11.1214 11.1216C10.7018 11.5412 10.1673 11.8269 9.58529 11.9427C9.00333 12.0585 8.4001 11.9991 7.8519 11.772C7.3037 11.5449 6.83514 11.1604 6.50548 10.667C6.17582 10.1736 5.99987 9.5935 5.99987 9.00011C6.00072 8.20465 6.31708 7.44202 6.87952 6.87955C7.44197 6.31708 8.20458 6.0007 9 5.99985V5.99985ZM9 4.49993C8.10998 4.49993 7.23996 4.76386 6.49993 5.25834C5.75991 5.75283 5.18314 6.45566 4.84254 7.27796C4.50195 8.10026 4.41283 9.0051 4.58647 9.87805C4.7601 10.751 5.18868 11.5529 5.81802 12.1822C6.44736 12.8116 7.24918 13.2402 8.12209 13.4138C8.99501 13.5875 9.89981 13.4983 10.7221 13.1577C11.5443 12.8171 12.2471 12.2403 12.7416 11.5003C13.2361 10.7602 13.5 9.89016 13.5 9.00011C13.5 7.80659 13.0259 6.66195 12.182 5.818C11.3381 4.97405 10.1935 4.49993 9 4.49993V4.49993Z" fill="white"/>
</svg>
