<svg width="19" height="18" viewBox="0 0 19 18" fill="none" xmlns="http://www.w3.org/2000/svg">
<path d="M16.9691 0H1.94667C1.12582 0 0.40863 0.590625 0.40863 1.40183V16.4575C0.40863 17.2732 1.12582 18 1.94667 18H16.9646C17.7899 18 18.4087 17.2683 18.4087 16.4575V1.40183C18.4135 0.590625 17.7899 0 16.9691 0ZM5.98824 15.0039H3.40957V6.98625H5.98824V15.0039ZM4.7881 5.76723H4.76962C3.94435 5.76723 3.40997 5.1529 3.40997 4.38388C3.40997 3.6008 3.95841 3.00094 4.80216 3.00094C5.64592 3.00094 6.16221 3.59638 6.18069 4.38388C6.18029 5.1529 5.64592 5.76723 4.7881 5.76723ZM15.4125 15.0039H12.8339V10.62C12.8339 9.56973 12.4586 8.85214 11.5257 8.85214C10.8129 8.85214 10.391 9.33429 10.2034 9.80397C10.1331 9.97272 10.1142 10.2025 10.1142 10.4372V15.0039H7.53552V6.98625H10.1142V8.10201C10.4895 7.56763 11.0757 6.79862 12.4397 6.79862C14.1324 6.79862 15.4129 7.91438 15.4129 10.3199L15.4125 15.0039Z" fill="white"/>
</svg>
