<svg width="94" height="19" viewBox="0 0 94 19" fill="none" xmlns="http://www.w3.org/2000/svg">
<path d="M32.6702 16.3859C31.731 16.3859 30.8467 16.2151 30.0173 15.8736C29.2 15.532 28.4865 15.0624 27.8766 14.4648C27.2667 13.8549 26.7849 13.1474 26.4312 12.3424C26.0896 11.5251 25.9189 10.6469 25.9189 9.70772C25.9189 8.76851 26.0957 7.89638 26.4495 7.09135C26.8032 6.28631 27.2911 5.58495 27.9132 4.98727C28.5475 4.3774 29.2854 3.90779 30.127 3.57846C30.9687 3.23693 31.8713 3.06616 32.8349 3.06616C33.9449 3.06616 34.9512 3.26742 35.8538 3.66994C36.7686 4.07246 37.5248 4.62745 38.1225 5.3349L36.1648 7.29261C35.7501 6.75591 35.2622 6.3534 34.7011 6.08505C34.14 5.81671 33.5057 5.68253 32.7983 5.68253C32.042 5.68253 31.3651 5.8533 30.7674 6.19483C30.1697 6.52416 29.7001 6.99377 29.3586 7.60364C29.0293 8.20132 28.8646 8.90268 28.8646 9.70772C28.8646 10.5128 29.0293 11.2202 29.3586 11.8301C29.6879 12.44 30.1392 12.9157 30.7125 13.2572C31.2858 13.5987 31.9445 13.7695 32.6885 13.7695C33.4448 13.7695 34.0851 13.6292 34.6096 13.3487C35.1463 13.0559 35.5549 12.6412 35.8355 12.1045C36.1282 11.5556 36.2746 10.8909 36.2746 10.1102L38.1774 11.391L32.4141 11.2995V8.86609H39.202V9.2869C39.202 10.836 38.9215 12.1411 38.3604 13.2023C37.8115 14.2513 37.043 15.0441 36.055 15.5808C35.0792 16.1175 33.951 16.3859 32.6702 16.3859Z" fill="white"/>
<path d="M39.4194 16.1846L44.5424 3.26742H47.1404L52.2085 16.1846H49.1713L45.2925 5.46298H46.3354L42.4017 16.1846H39.4194ZM42.3285 13.8427V11.5008H49.3726V13.8427H42.3285Z" fill="white"/>
<path d="M53.5753 16.1846V3.26742H55.6245L60.7109 11.1897H59.668L64.7361 3.26742H66.8035V16.1846H63.931V8.11594L64.4433 8.24401L61.1317 13.4036H59.2289L55.9355 8.24401L56.4295 8.11594V16.1846H53.5753Z" fill="white"/>
<path d="M68.3111 16.1846L73.4341 3.26742H76.0322L81.1002 16.1846H78.063L74.1842 5.46298H75.2271L71.2934 16.1846H68.3111ZM71.2202 13.8427V11.5008H78.2643V13.8427H71.2202Z" fill="white"/>
<path d="M82.467 16.1846V3.26742H84.4796L85.3395 5.8472V16.1846H82.467ZM91.3773 16.1846L83.7661 6.43268L84.4796 3.26742L92.0909 13.0193L91.3773 16.1846ZM91.3773 16.1846L90.6089 13.6048V3.26742H93.4814V16.1846H91.3773Z" fill="white"/>
<path fill-rule="evenodd" clip-rule="evenodd" d="M9.85186 19C15.2929 19 19.7037 14.7467 19.7037 9.49999C19.7037 4.2533 15.2929 0 9.85186 0C4.41081 0 0 4.2533 0 9.49999C0 14.7467 4.41081 19 9.85186 19ZM12.9253 4.4255C13.0749 3.91308 12.5592 3.61006 12.0882 3.93362L5.51365 8.45005C5.00288 8.80094 5.08322 9.49999 5.63433 9.49999H7.3656V9.48707H10.7398L7.99045 10.4225L6.77843 14.5745C6.62882 15.0869 7.14447 15.39 7.61549 15.0664L14.1901 10.55C14.7008 10.1991 14.6204 9.49999 14.0694 9.49999H11.444L12.9253 4.4255Z" fill="white"/>
</svg>
