<svg width="25" height="18" viewBox="0 0 25 18" fill="none" xmlns="http://www.w3.org/2000/svg">
<path d="M23.8508 3.97442C23.8508 1.86511 22.2993 0.168277 20.3822 0.168277C17.7854 0.0468736 15.137 0 12.4305 0H11.5868C8.88684 0 6.23379 0.0468737 3.63698 0.168745C1.72453 0.168745 0.17301 1.87495 0.17301 3.98427C0.0558258 5.6525 0.00613961 7.32121 0.00895204 8.98991C0.00426466 10.6586 0.0573883 12.3289 0.168323 14.0007C0.168323 16.11 1.71984 17.8209 3.63229 17.8209C6.36035 17.9475 9.15871 18.0037 12.0039 17.999C14.8539 18.0084 17.6444 17.949 20.3756 17.8209C22.2927 17.8209 23.8443 16.11 23.8443 14.0007C23.9568 12.3273 24.0083 10.6586 24.0036 8.98522C24.0143 7.31652 23.9633 5.64625 23.8508 3.97442ZM9.71182 13.5882V4.37754L16.5085 8.98054L9.71182 13.5882Z" fill="white"/>
</svg>
