<svg width="23" height="18" viewBox="0 0 23 18" fill="none" xmlns="http://www.w3.org/2000/svg">
<path d="M22.8086 2.13281C21.9646 2.49954 21.0716 2.74115 20.1578 2.85C21.1181 2.28768 21.8403 1.39433 22.1889 0.337507C21.281 0.868407 20.2893 1.24091 19.2564 1.43907C18.8214 0.983222 18.2983 0.620586 17.7189 0.3732C17.1394 0.125813 16.5157 -0.00115656 15.8856 7.93799e-06C13.3347 7.93799e-06 11.2703 2.03438 11.2703 4.54218C11.2685 4.89101 11.3085 5.2388 11.3894 5.57812C9.5602 5.49236 7.76903 5.02573 6.1305 4.20808C4.49197 3.39043 3.04215 2.23976 1.87381 0.829693C1.46392 1.52068 1.24715 2.30908 1.24615 3.1125C1.24615 4.68749 2.06787 6.07968 3.30864 6.8953C2.57352 6.87785 1.85346 6.68328 1.20959 6.32811V6.38436C1.20959 8.58748 2.80333 10.4203 4.9127 10.8375C4.51604 10.9432 4.10728 10.9968 3.69677 10.9968C3.40548 10.9974 3.11485 10.9691 2.82911 10.9125C3.41552 12.7172 5.12223 14.0297 7.14394 14.0672C5.50116 15.3332 3.48425 16.0175 1.41021 16.0125C1.04207 16.0119 0.674262 15.99 0.308655 15.9468C2.41858 17.2941 4.87119 18.0068 7.37457 18C15.8758 18 20.5201 11.0765 20.5201 5.07187C20.5201 4.87499 20.515 4.67812 20.5056 4.48593C21.4071 3.84471 22.1869 3.04786 22.8086 2.13281Z" fill="white"/>
</svg>
